<?xml version="1.0" encoding="UTF-8" standalone="no"?>
<!-- Created with Inkscape (http://www.inkscape.org/) -->

<svg
   xmlns:dc="http://purl.org/dc/elements/1.1/"
   xmlns:cc="http://creativecommons.org/ns#"
   xmlns:rdf="http://www.w3.org/1999/02/22-rdf-syntax-ns#"
   xmlns:svg="http://www.w3.org/2000/svg"
   xmlns="http://www.w3.org/2000/svg"
   xmlns:sodipodi="http://sodipodi.sourceforge.net/DTD/sodipodi-0.dtd"
   xmlns:inkscape="http://www.inkscape.org/namespaces/inkscape"
   width="662.67773"
   height="490.16159"
   id="svg3544"
   version="1.1"
   inkscape:version="0.48.2 r9819"
   sodipodi:docname="partitions.svg">
  <defs
     id="defs3546" />
  <sodipodi:namedview
     id="base"
     pagecolor="#ffffff"
     bordercolor="#666666"
     borderopacity="1.0"
     inkscape:pageopacity="0.0"
     inkscape:pageshadow="2"
     inkscape:zoom="0.69462777"
     inkscape:cx="349.60904"
     inkscape:cy="-13.513112"
     inkscape:document-units="px"
     inkscape:current-layer="layer1"
     showgrid="false"
     showguides="true"
     inkscape:guide-bbox="true"
     inkscape:window-width="1323"
     inkscape:window-height="949"
     inkscape:window-x="141"
     inkscape:window-y="43"
     inkscape:window-maximized="0"
     fit-margin-top="5"
     fit-margin-left="5"
     fit-margin-right="5"
     fit-margin-bottom="5" />
  <metadata
     id="metadata3549">
    <rdf:RDF>
      <cc:Work
         rdf:about="">
        <dc:format>image/svg+xml</dc:format>
        <dc:type
           rdf:resource="http://purl.org/dc/dcmitype/StillImage" />
        <dc:title></dc:title>
      </cc:Work>
    </rdf:RDF>
  </metadata>
  <g
     inkscape:label="Layer 1"
     inkscape:groupmode="layer"
     id="layer1"
     transform="translate(-22.438198,-22.50637)">
    <path
       sodipodi:nodetypes="cc"
       style="fill:none;stroke:#000000;stroke-width:2;stroke-linecap:butt;stroke-linejoin:miter;stroke-miterlimit:4;stroke-opacity:1;stroke-dasharray:4, 4;stroke-dashoffset:0"
       d="M 494.31079,313.92487 577.3017,263.03994"
       id="path4504"
       inkscape:connector-curvature="0" />
    <path
       inkscape:connector-curvature="0"
       id="path4502"
       d="M 664.53301,401.76196 660.2926,310.89601"
       style="fill:none;stroke:#000000;stroke-width:2;stroke-linecap:butt;stroke-linejoin:miter;stroke-miterlimit:4;stroke-opacity:1;stroke-dasharray:4, 4;stroke-dashoffset:0"
       sodipodi:nodetypes="cc" />
    <path
       sodipodi:nodetypes="cc"
       style="fill:none;stroke:#000000;stroke-width:2;stroke-linecap:butt;stroke-linejoin:miter;stroke-miterlimit:4;stroke-opacity:1;stroke-dasharray:4, 4;stroke-dashoffset:0"
       d="M 576.09015,460.52194 489.46461,401.76196"
       id="path4500"
       inkscape:connector-curvature="0" />
    <path
       style="fill:none;stroke:#000000;stroke-width:2;stroke-linecap:butt;stroke-linejoin:miter;stroke-miterlimit:4;stroke-opacity:1;stroke-dasharray:none"
       d="m 576.69592,460.52194 87.83709,-58.75998"
       id="path4498"
       inkscape:connector-curvature="0"
       sodipodi:nodetypes="cc" />
    <path
       inkscape:connector-curvature="0"
       id="path4496"
       d="M 660.2926,311.50177 577.90747,262.43416"
       style="fill:none;stroke:#000000;stroke-width:2;stroke-linecap:butt;stroke-linejoin:miter;stroke-miterlimit:4;stroke-opacity:1;stroke-dasharray:none"
       sodipodi:nodetypes="cc" />
    <path
       style="fill:none;stroke:#000000;stroke-width:2;stroke-linecap:butt;stroke-linejoin:miter;stroke-miterlimit:4;stroke-opacity:1;stroke-dasharray:none"
       d="m 488.85883,401.76195 5.45196,-89.04863"
       id="path4494"
       inkscape:connector-curvature="0" />
    <path
       style="fill:none;stroke:#000000;stroke-width:2;stroke-linecap:butt;stroke-linejoin:miter;stroke-miterlimit:4;stroke-opacity:1;stroke-dasharray:none"
       d="m 577.30169,263.03993 -87.83708,138.72202 175.0684,0.60577 z"
       id="path4492"
       inkscape:connector-curvature="0" />
    <path
       style="fill:none;stroke:#000000;stroke-width:2;stroke-linecap:butt;stroke-linejoin:miter;stroke-miterlimit:4;stroke-opacity:1;stroke-dasharray:none"
       d="M 55.125345,167.32779 186.57809,246.68406 353.16567,149.1546"
       id="path4322"
       inkscape:connector-curvature="0" />
    <path
       inkscape:connector-curvature="0"
       id="path4324"
       d="M 55.125345,167.32779 122.97192,62.529057 228.9822,31.028859 351.95413,149.1546"
       style="fill:none;stroke:#000000;stroke-width:2;stroke-linecap:butt;stroke-linejoin:miter;stroke-miterlimit:4;stroke-opacity:1;stroke-dasharray:4, 4;stroke-dashoffset:0"
       sodipodi:nodetypes="cccc" />
    <path
       style="fill:none;stroke:#000000;stroke-width:2;stroke-linecap:butt;stroke-linejoin:miter;stroke-miterlimit:4;stroke-opacity:1;stroke-dasharray:none"
       d="M 122.97192,61.317511 186.57809,246.68406 228.9822,30.423086"
       id="path4326"
       inkscape:connector-curvature="0" />
    <path
       sodipodi:type="arc"
       style="fill:#ffffff;stroke:#000000;stroke-width:1;stroke-miterlimit:4;stroke-opacity:1;stroke-dasharray:none;stroke-dashoffset:0"
       id="path4328"
       sodipodi:cx="55.125347"
       sodipodi:cy="167.93356"
       sodipodi:rx="4.8461843"
       sodipodi:ry="4.8461843"
       d="m 59.971531,167.93356 c 0,2.67648 -2.16971,4.84619 -4.846184,4.84619 -2.676474,0 -4.846184,-2.16971 -4.846184,-4.84619 0,-2.67647 2.16971,-4.84618 4.846184,-4.84618 2.676474,0 4.846184,2.16971 4.846184,4.84618 z"
       transform="translate(0,-0.60577303)" />
    <path
       transform="translate(67.846579,-104.79873)"
       d="m 59.971531,167.93356 c 0,2.67648 -2.16971,4.84619 -4.846184,4.84619 -2.676474,0 -4.846184,-2.16971 -4.846184,-4.84619 0,-2.67647 2.16971,-4.84618 4.846184,-4.84618 2.676474,0 4.846184,2.16971 4.846184,4.84618 z"
       sodipodi:ry="4.8461843"
       sodipodi:rx="4.8461843"
       sodipodi:cy="167.93356"
       sodipodi:cx="55.125347"
       id="path4330"
       style="fill:#ffffff;stroke:#000000;stroke-width:1;stroke-miterlimit:4;stroke-opacity:1;stroke-dasharray:none;stroke-dashoffset:0"
       sodipodi:type="arc" />
    <path
       sodipodi:type="arc"
       style="fill:#ffffff;stroke:#000000;stroke-width:1;stroke-miterlimit:4;stroke-opacity:1;stroke-dasharray:none;stroke-dashoffset:0"
       id="path4332"
       sodipodi:cx="55.125347"
       sodipodi:cy="167.93356"
       sodipodi:rx="4.8461843"
       sodipodi:ry="4.8461843"
       d="m 59.971531,167.93356 c 0,2.67648 -2.16971,4.84619 -4.846184,4.84619 -2.676474,0 -4.846184,-2.16971 -4.846184,-4.84619 0,-2.67647 2.16971,-4.84618 4.846184,-4.84618 2.676474,0 4.846184,2.16971 4.846184,4.84618 z"
       transform="translate(173.25109,-135.08738)" />
    <path
       transform="translate(295.61724,-18.778959)"
       d="m 59.971531,167.93356 c 0,2.67648 -2.16971,4.84619 -4.846184,4.84619 -2.676474,0 -4.846184,-2.16971 -4.846184,-4.84619 0,-2.67647 2.16971,-4.84618 4.846184,-4.84618 2.676474,0 4.846184,2.16971 4.846184,4.84618 z"
       sodipodi:ry="4.8461843"
       sodipodi:rx="4.8461843"
       sodipodi:cy="167.93356"
       sodipodi:cx="55.125347"
       id="path4334"
       style="fill:#ffffff;stroke:#000000;stroke-width:1;stroke-miterlimit:4;stroke-opacity:1;stroke-dasharray:none;stroke-dashoffset:0"
       sodipodi:type="arc" />
    <path
       sodipodi:type="arc"
       style="fill:#000000;stroke:#000000;stroke-width:1;stroke-miterlimit:4;stroke-opacity:1;stroke-dasharray:none;stroke-dashoffset:0"
       id="path4336"
       sodipodi:cx="55.125347"
       sodipodi:cy="167.93356"
       sodipodi:rx="4.8461843"
       sodipodi:ry="4.8461843"
       d="m 59.971531,167.93356 c 0,2.67648 -2.16971,4.84619 -4.846184,4.84619 -2.676474,0 -4.846184,-2.16971 -4.846184,-4.84619 0,-2.67647 2.16971,-4.84618 4.846184,-4.84618 2.676474,0 4.846184,2.16971 4.846184,4.84618 z"
       transform="translate(131.45275,78.750498)" />
    <path
       inkscape:connector-curvature="0"
       id="path4354"
       d="M 59.365756,422.96401 190.8185,502.32028"
       style="fill:none;stroke:#000000;stroke-width:2;stroke-linecap:butt;stroke-linejoin:miter;stroke-miterlimit:4;stroke-opacity:1;stroke-dasharray:none"
       sodipodi:nodetypes="cc" />
    <path
       sodipodi:nodetypes="cc"
       style="fill:none;stroke:#000000;stroke-width:2;stroke-linecap:butt;stroke-linejoin:miter;stroke-miterlimit:4;stroke-opacity:1;stroke-dasharray:4, 4;stroke-dashoffset:0"
       d="M 59.365756,422.96401 127.21233,318.16527"
       id="path4356"
       inkscape:connector-curvature="0" />
    <path
       inkscape:connector-curvature="0"
       id="path4358"
       d="M 127.21233,316.95373 190.8185,502.32028"
       style="fill:none;stroke:#000000;stroke-width:2;stroke-linecap:butt;stroke-linejoin:miter;stroke-miterlimit:4;stroke-opacity:1;stroke-dasharray:none"
       sodipodi:nodetypes="cc" />
    <path
       transform="translate(4.2404112,255.03044)"
       d="m 59.971531,167.93356 c 0,2.67648 -2.16971,4.84619 -4.846184,4.84619 -2.676474,0 -4.846184,-2.16971 -4.846184,-4.84619 0,-2.67647 2.16971,-4.84618 4.846184,-4.84618 2.676474,0 4.846184,2.16971 4.846184,4.84618 z"
       sodipodi:ry="4.8461843"
       sodipodi:rx="4.8461843"
       sodipodi:cy="167.93356"
       sodipodi:cx="55.125347"
       id="path4360"
       style="fill:#ffffff;stroke:#000000;stroke-width:1;stroke-miterlimit:4;stroke-opacity:1;stroke-dasharray:none;stroke-dashoffset:0"
       sodipodi:type="arc" />
    <path
       sodipodi:type="arc"
       style="fill:#ffffff;stroke:#000000;stroke-width:1;stroke-miterlimit:4;stroke-opacity:1;stroke-dasharray:none;stroke-dashoffset:0"
       id="path4362"
       sodipodi:cx="55.125347"
       sodipodi:cy="167.93356"
       sodipodi:rx="4.8461843"
       sodipodi:ry="4.8461843"
       d="m 59.971531,167.93356 c 0,2.67648 -2.16971,4.84619 -4.846184,4.84619 -2.676474,0 -4.846184,-2.16971 -4.846184,-4.84619 0,-2.67647 2.16971,-4.84618 4.846184,-4.84618 2.676474,0 4.846184,2.16971 4.846184,4.84618 z"
       transform="translate(72.08699,150.83749)" />
    <path
       transform="translate(135.69316,334.38672)"
       d="m 59.971531,167.93356 c 0,2.67648 -2.16971,4.84619 -4.846184,4.84619 -2.676474,0 -4.846184,-2.16971 -4.846184,-4.84619 0,-2.67647 2.16971,-4.84618 4.846184,-4.84618 2.676474,0 4.846184,2.16971 4.846184,4.84618 z"
       sodipodi:ry="4.8461843"
       sodipodi:rx="4.8461843"
       sodipodi:cy="167.93356"
       sodipodi:cx="55.125347"
       id="path4368"
       style="fill:#000000;stroke:#000000;stroke-width:1;stroke-miterlimit:4;stroke-opacity:1;stroke-dasharray:none;stroke-dashoffset:0"
       sodipodi:type="arc" />
    <g
       id="g4402"
       transform="translate(-316.21352,2.4230921)">
      <path
         sodipodi:nodetypes="ccc"
         style="fill:none;stroke:#000000;stroke-width:2;stroke-linecap:butt;stroke-linejoin:miter;stroke-miterlimit:4;stroke-opacity:1;stroke-dasharray:4, 4;stroke-dashoffset:0"
         d="M 525.81099,495.051 463.41636,310.29022 569.42664,278.79003"
         id="path4388"
         inkscape:connector-curvature="0" />
      <path
         sodipodi:nodetypes="cc"
         inkscape:connector-curvature="0"
         id="path4390"
         d="M 527.02253,494.44523 569.42664,278.18425"
         style="fill:none;stroke:#000000;stroke-width:2;stroke-linecap:butt;stroke-linejoin:miter;stroke-miterlimit:4;stroke-opacity:1;stroke-dasharray:none" />
      <path
         sodipodi:type="arc"
         style="fill:#ffffff;stroke:#000000;stroke-width:1;stroke-miterlimit:4;stroke-opacity:1;stroke-dasharray:none;stroke-dashoffset:0"
         id="path4394"
         sodipodi:cx="55.125347"
         sodipodi:cy="167.93356"
         sodipodi:rx="4.8461843"
         sodipodi:ry="4.8461843"
         d="m 59.971531,167.93356 c 0,2.67648 -2.16971,4.84619 -4.846184,4.84619 -2.676474,0 -4.846184,-2.16971 -4.846184,-4.84619 0,-2.67647 2.16971,-4.84618 4.846184,-4.84618 2.676474,0 4.846184,2.16971 4.846184,4.84618 z"
         transform="translate(408.29102,142.96244)" />
      <path
         transform="translate(513.69553,112.67379)"
         d="m 59.971531,167.93356 c 0,2.67648 -2.16971,4.84619 -4.846184,4.84619 -2.676474,0 -4.846184,-2.16971 -4.846184,-4.84619 0,-2.67647 2.16971,-4.84618 4.846184,-4.84618 2.676474,0 4.846184,2.16971 4.846184,4.84618 z"
         sodipodi:ry="4.8461843"
         sodipodi:rx="4.8461843"
         sodipodi:cy="167.93356"
         sodipodi:cx="55.125347"
         id="path4396"
         style="fill:#ffffff;stroke:#000000;stroke-width:1;stroke-miterlimit:4;stroke-opacity:1;stroke-dasharray:none;stroke-dashoffset:0"
         sodipodi:type="arc" />
      <path
         sodipodi:type="arc"
         style="fill:#ffffff;stroke:#000000;stroke-width:1;stroke-miterlimit:4;stroke-opacity:1;stroke-dasharray:none;stroke-dashoffset:0"
         id="path4398"
         sodipodi:cx="55.125347"
         sodipodi:cy="167.93356"
         sodipodi:rx="4.8461843"
         sodipodi:ry="4.8461843"
         d="m 59.971531,167.93356 c 0,2.67648 -2.16971,4.84619 -4.846184,4.84619 -2.676474,0 -4.846184,-2.16971 -4.846184,-4.84619 0,-2.67647 2.16971,-4.84618 4.846184,-4.84618 2.676474,0 4.846184,2.16971 4.846184,4.84618 z"
         transform="translate(471.29142,327.11744)" />
    </g>
    <path
       inkscape:connector-curvature="0"
       id="path4425"
       d="M 228.9822,497.47409 395.56978,399.94463"
       style="fill:none;stroke:#000000;stroke-width:2;stroke-linecap:butt;stroke-linejoin:miter;stroke-miterlimit:4;stroke-opacity:1;stroke-dasharray:none"
       sodipodi:nodetypes="cc" />
    <path
       sodipodi:nodetypes="cc"
       style="fill:none;stroke:#000000;stroke-width:2;stroke-linecap:butt;stroke-linejoin:miter;stroke-miterlimit:4;stroke-opacity:1;stroke-dasharray:4, 4;stroke-dashoffset:0"
       d="M 271.38631,281.81889 394.35824,399.94463"
       id="path4427"
       inkscape:connector-curvature="0" />
    <path
       inkscape:connector-curvature="0"
       id="path4429"
       d="M 228.9822,497.47409 271.38631,281.21312"
       style="fill:none;stroke:#000000;stroke-width:2;stroke-linecap:butt;stroke-linejoin:miter;stroke-miterlimit:4;stroke-opacity:1;stroke-dasharray:4, 4;stroke-dashoffset:0"
       sodipodi:nodetypes="cc" />
    <path
       transform="translate(215.6552,115.70265)"
       d="m 59.971531,167.93356 c 0,2.67648 -2.16971,4.84619 -4.846184,4.84619 -2.676474,0 -4.846184,-2.16971 -4.846184,-4.84619 0,-2.67647 2.16971,-4.84618 4.846184,-4.84618 2.676474,0 4.846184,2.16971 4.846184,4.84618 z"
       sodipodi:ry="4.8461843"
       sodipodi:rx="4.8461843"
       sodipodi:cy="167.93356"
       sodipodi:cx="55.125347"
       id="path4435"
       style="fill:#ffffff;stroke:#000000;stroke-width:1;stroke-miterlimit:4;stroke-opacity:1;stroke-dasharray:none;stroke-dashoffset:0"
       sodipodi:type="arc" />
    <path
       sodipodi:type="arc"
       style="fill:#ffffff;stroke:#000000;stroke-width:1;stroke-miterlimit:4;stroke-opacity:1;stroke-dasharray:none;stroke-dashoffset:0"
       id="path4437"
       sodipodi:cx="55.125347"
       sodipodi:cy="167.93356"
       sodipodi:rx="4.8461843"
       sodipodi:ry="4.8461843"
       d="m 59.971531,167.93356 c 0,2.67648 -2.16971,4.84619 -4.846184,4.84619 -2.676474,0 -4.846184,-2.16971 -4.846184,-4.84619 0,-2.67647 2.16971,-4.84618 4.846184,-4.84618 2.676474,0 4.846184,2.16971 4.846184,4.84618 z"
       transform="translate(338.02135,232.01108)" />
    <path
       transform="translate(173.85686,329.54053)"
       d="m 59.971531,167.93356 c 0,2.67648 -2.16971,4.84619 -4.846184,4.84619 -2.676474,0 -4.846184,-2.16971 -4.846184,-4.84619 0,-2.67647 2.16971,-4.84618 4.846184,-4.84618 2.676474,0 4.846184,2.16971 4.846184,4.84618 z"
       sodipodi:ry="4.8461843"
       sodipodi:rx="4.8461843"
       sodipodi:cy="167.93356"
       sodipodi:cx="55.125347"
       id="path4439"
       style="fill:#ffffff;stroke:#000000;stroke-width:1;stroke-miterlimit:4;stroke-opacity:1;stroke-dasharray:none;stroke-dashoffset:0"
       sodipodi:type="arc" />
    <g
       id="g4472"
       transform="matrix(0.95737668,0.28884234,-0.28884234,0.95737668,65.382713,-170.20749)">
      <path
         inkscape:connector-curvature="0"
         id="path4460"
         d="M 532.47449,220.03005 689.97547,169.14511"
         style="fill:none;stroke:#000000;stroke-width:2;stroke-linecap:butt;stroke-linejoin:miter;stroke-miterlimit:4;stroke-opacity:1;stroke-dasharray:none"
         sodipodi:nodetypes="cc" />
      <path
         sodipodi:nodetypes="cc"
         style="fill:none;stroke:#000000;stroke-width:2;stroke-linecap:butt;stroke-linejoin:miter;stroke-miterlimit:4;stroke-opacity:1;stroke-dasharray:4, 4;stroke-dashoffset:0"
         d="M 565.792,51.019367 688.76393,169.14511"
         id="path4462"
         inkscape:connector-curvature="0" />
      <path
         inkscape:connector-curvature="0"
         id="path4464"
         d="M 532.47449,219.42427 565.792,50.413597"
         style="fill:none;stroke:#000000;stroke-width:2;stroke-linecap:butt;stroke-linejoin:miter;stroke-miterlimit:4;stroke-opacity:1;stroke-dasharray:4, 4;stroke-dashoffset:0"
         sodipodi:nodetypes="cc" />
      <path
         transform="translate(510.06089,-115.09687)"
         d="m 59.971531,167.93356 c 0,2.67648 -2.16971,4.84619 -4.846184,4.84619 -2.676474,0 -4.846184,-2.16971 -4.846184,-4.84619 0,-2.67647 2.16971,-4.84618 4.846184,-4.84618 2.676474,0 4.846184,2.16971 4.846184,4.84618 z"
         sodipodi:ry="4.8461843"
         sodipodi:rx="4.8461843"
         sodipodi:cy="167.93356"
         sodipodi:cx="55.125347"
         id="path4466"
         style="fill:#ffffff;stroke:#000000;stroke-width:1;stroke-miterlimit:4;stroke-opacity:1;stroke-dasharray:none;stroke-dashoffset:0"
         sodipodi:type="arc" />
      <path
         sodipodi:type="arc"
         style="fill:#ffffff;stroke:#000000;stroke-width:1;stroke-miterlimit:4;stroke-opacity:1;stroke-dasharray:none;stroke-dashoffset:0"
         id="path4468"
         sodipodi:cx="55.125347"
         sodipodi:cy="167.93356"
         sodipodi:rx="4.8461843"
         sodipodi:ry="4.8461843"
         d="m 59.971531,167.93356 c 0,2.67648 -2.16971,4.84619 -4.846184,4.84619 -2.676474,0 -4.846184,-2.16971 -4.846184,-4.84619 0,-2.67647 2.16971,-4.84618 4.846184,-4.84618 2.676474,0 4.846184,2.16971 4.846184,4.84618 z"
         transform="translate(632.42704,1.2115571)" />
      <path
         transform="translate(476.1376,52.096484)"
         d="m 59.971531,167.93356 c 0,2.67648 -2.16971,4.84619 -4.846184,4.84619 -2.676474,0 -4.846184,-2.16971 -4.846184,-4.84619 0,-2.67647 2.16971,-4.84618 4.846184,-4.84618 2.676474,0 4.846184,2.16971 4.846184,4.84618 z"
         sodipodi:ry="4.8461843"
         sodipodi:rx="4.8461843"
         sodipodi:cy="167.93356"
         sodipodi:cx="55.125347"
         id="path4470"
         style="fill:#000000;stroke:#000000;stroke-width:1;stroke-miterlimit:4;stroke-opacity:1;stroke-dasharray:none;stroke-dashoffset:0"
         sodipodi:type="arc" />
    </g>
    <path
       transform="translate(522.78212,95.712149)"
       d="m 59.971531,167.93356 c 0,2.67648 -2.16971,4.84619 -4.846184,4.84619 -2.676474,0 -4.846184,-2.16971 -4.846184,-4.84619 0,-2.67647 2.16971,-4.84618 4.846184,-4.84618 2.676474,0 4.846184,2.16971 4.846184,4.84618 z"
       sodipodi:ry="4.8461843"
       sodipodi:rx="4.8461843"
       sodipodi:cy="167.93356"
       sodipodi:cx="55.125347"
       id="path4480"
       style="fill:#ffffff;stroke:#000000;stroke-width:1;stroke-miterlimit:4;stroke-opacity:1;stroke-dasharray:none;stroke-dashoffset:0"
       sodipodi:type="arc" />
    <path
       sodipodi:type="arc"
       style="fill:#ffffff;stroke:#000000;stroke-width:1;stroke-miterlimit:4;stroke-opacity:1;stroke-dasharray:none;stroke-dashoffset:0"
       id="path4482"
       sodipodi:cx="55.125347"
       sodipodi:cy="167.93356"
       sodipodi:rx="4.8461843"
       sodipodi:ry="4.8461843"
       d="m 59.971531,167.93356 c 0,2.67648 -2.16971,4.84619 -4.846184,4.84619 -2.676474,0 -4.846184,-2.16971 -4.846184,-4.84619 0,-2.67647 2.16971,-4.84618 4.846184,-4.84618 2.676474,0 4.846184,2.16971 4.846184,4.84618 z"
       transform="translate(605.16725,143.56822)" />
    <path
       transform="translate(609.40766,234.43417)"
       d="m 59.971531,167.93356 c 0,2.67648 -2.16971,4.84619 -4.846184,4.84619 -2.676474,0 -4.846184,-2.16971 -4.846184,-4.84619 0,-2.67647 2.16971,-4.84618 4.846184,-4.84618 2.676474,0 4.846184,2.16971 4.846184,4.84618 z"
       sodipodi:ry="4.8461843"
       sodipodi:rx="4.8461843"
       sodipodi:cy="167.93356"
       sodipodi:cx="55.125347"
       id="path4484"
       style="fill:#ffffff;stroke:#000000;stroke-width:1;stroke-miterlimit:4;stroke-opacity:1;stroke-dasharray:none;stroke-dashoffset:0"
       sodipodi:type="arc" />
    <path
       sodipodi:type="arc"
       style="fill:#ffffff;stroke:#000000;stroke-width:1;stroke-miterlimit:4;stroke-opacity:1;stroke-dasharray:none;stroke-dashoffset:0"
       id="path4486"
       sodipodi:cx="55.125347"
       sodipodi:cy="167.93356"
       sodipodi:rx="4.8461843"
       sodipodi:ry="4.8461843"
       d="m 59.971531,167.93356 c 0,2.67648 -2.16971,4.84619 -4.846184,4.84619 -2.676474,0 -4.846184,-2.16971 -4.846184,-4.84619 0,-2.67647 2.16971,-4.84618 4.846184,-4.84618 2.676474,0 4.846184,2.16971 4.846184,4.84618 z"
       transform="translate(521.57057,292.58838)" />
    <path
       transform="translate(434.33926,233.8284)"
       d="m 59.971531,167.93356 c 0,2.67648 -2.16971,4.84619 -4.846184,4.84619 -2.676474,0 -4.846184,-2.16971 -4.846184,-4.84619 0,-2.67647 2.16971,-4.84618 4.846184,-4.84618 2.676474,0 4.846184,2.16971 4.846184,4.84618 z"
       sodipodi:ry="4.8461843"
       sodipodi:rx="4.8461843"
       sodipodi:cy="167.93356"
       sodipodi:cx="55.125347"
       id="path4488"
       style="fill:#ffffff;stroke:#000000;stroke-width:1;stroke-miterlimit:4;stroke-opacity:1;stroke-dasharray:none;stroke-dashoffset:0"
       sodipodi:type="arc" />
    <path
       sodipodi:type="arc"
       style="fill:#ffffff;stroke:#000000;stroke-width:1;stroke-miterlimit:4;stroke-opacity:1;stroke-dasharray:none;stroke-dashoffset:0"
       id="path4490"
       sodipodi:cx="55.125347"
       sodipodi:cy="167.93356"
       sodipodi:rx="4.8461843"
       sodipodi:ry="4.8461843"
       d="m 59.971531,167.93356 c 0,2.67648 -2.16971,4.84619 -4.846184,4.84619 -2.676474,0 -4.846184,-2.16971 -4.846184,-4.84619 0,-2.67647 2.16971,-4.84618 4.846184,-4.84618 2.676474,0 4.846184,2.16971 4.846184,4.84618 z"
       transform="translate(439.18544,145.38554)" />
    <text
       xml:space="preserve"
       style="font-size:10px;font-style:normal;font-variant:normal;font-weight:normal;font-stretch:normal;line-height:125%;letter-spacing:0px;word-spacing:0px;fill:#000000;fill-opacity:1;stroke:none;font-family:Times New Roman;-inkscape-font-specification:Times New Roman"
       x="461.59903"
       y="258.79953"
       id="text4506"
       sodipodi:linespacing="125%"><tspan
         sodipodi:role="line"
         id="tspan4508"
         x="461.59903"
         y="258.79953"
         style="font-size:22px">c)</tspan></text>
    <text
       sodipodi:linespacing="125%"
       id="text4510"
       y="52.230915"
       x="461.59903"
       style="font-size:10px;font-style:normal;font-variant:normal;font-weight:normal;font-stretch:normal;line-height:125%;letter-spacing:0px;word-spacing:0px;fill:#000000;fill-opacity:1;stroke:none;font-family:Times New Roman;-inkscape-font-specification:Times New Roman"
       xml:space="preserve"><tspan
         style="font-size:22px"
         y="52.230915"
         x="461.59903"
         id="tspan4512"
         sodipodi:role="line">b)</tspan></text>
    <text
       xml:space="preserve"
       style="font-size:10px;font-style:normal;font-variant:normal;font-weight:normal;font-stretch:normal;line-height:125%;letter-spacing:0px;word-spacing:0px;fill:#000000;fill-opacity:1;stroke:none;font-family:Times New Roman;-inkscape-font-specification:Times New Roman"
       x="26.654018"
       y="52.230915"
       id="text4514"
       sodipodi:linespacing="125%"><tspan
         sodipodi:role="line"
         id="tspan4516"
         x="26.654018"
         y="52.230915"
         style="font-size:22px">a)</tspan></text>
  </g>
</svg>
